name Walk10.mot
datacolumns 19
datarows 25
range 1.75500000 1.87500000
endheader

                time	   L_ground_force_vx	   L_ground_force_vy	   L_ground_force_vz	   L_ground_force_px	   L_ground_force_py	   L_ground_force_pz	   R_ground_force_vx	   R_ground_force_vy	   R_ground_force_vz	   R_ground_force_px	   R_ground_force_py	   R_ground_force_pz	   L_ground_torque_x	   L_ground_torque_y	   L_ground_torque_z	   R_ground_torque_x	   R_ground_torque_y	   R_ground_torque_z	
          1.75500000	         14.93335719	        553.82572009	         37.73680607	         -0.30516584	          0.00000000	         -0.10647992	         -0.01270856	          0.24718149	          0.01342837	          0.00013751	          0.00000000	          0.00005724	          0.00000000	         -0.19629834	          0.00000000	          0.00000000	          0.00020649	          0.00000000	
          1.76000000	         17.04313921	        564.05094520	         38.65768837	         -0.30421177	          0.00000000	         -0.10679259	         -0.02130787	          0.31697490	          0.01453670	          0.00016725	          0.00000000	          0.00006932	          0.00000000	         -0.15735428	          0.00000000	          0.00000000	          0.00035886	          0.00000000	
          1.76500000	         19.34190880	        574.44363916	         39.65099106	         -0.30333949	          0.00000000	         -0.10711379	         -0.03208960	          0.38671742	          0.01447222	          0.00019301	          0.00000000	          0.00007961	          0.00000000	         -0.11704890	          0.00000000	          0.00000000	          0.00055221	          0.00000000	
          1.77000000	         21.82477203	        584.99567202	         40.70229572	         -0.30253942	          0.00000000	         -0.10744106	         -0.04494487	          0.44777937	          0.01258684	          0.00020937	          0.00000000	          0.00008583	          0.00000000	         -0.07725076	          0.00000000	          0.00000000	          0.00078561	          0.00000000	
          1.77500000	         24.48704905	        595.69695899	         41.79591569	         -0.30180323	          0.00000000	         -0.10777202	         -0.05944815	          0.48777437	          0.00809451	          0.00020906	          0.00000000	          0.00008495	          0.00000000	         -0.03950333	          0.00000000	          0.00000000	          0.00105267	          0.00000000	
          1.78000000	         27.32219820	        606.52562152	         42.91696872	         -0.30112367	          0.00000000	         -0.10810470	         -0.07473264	          0.48998548	          0.00009098	          0.00018280	          0.00000000	          0.00007310	          0.00000000	         -0.00497764	          0.00000000	          0.00000000	          0.00133930	          0.00000000	
          1.78500000	         30.31999950	        617.43985904	         44.05240915	         -0.30049342	          0.00000000	         -0.10843699	         -0.08935033	          0.43300448	         -0.01240079	          0.00011930	          0.00000000	          0.00004561	          0.00000000	          0.02542839	          0.00000000	          0.00000000	          0.00162109	          0.00000000	
          1.79000000	         33.46674754	        628.37402959	         45.19057048	         -0.29990450	          0.00000000	         -0.10876669	         -0.10112546	          0.29074785	         -0.03035083	          0.00000556	          0.00000000	         -0.00000288	          0.00000000	          0.05133185	          0.00000000	          0.00000000	          0.00186059	          0.00000000	
          1.79500000	         36.74536988	        639.23527854	         46.32151345	         -0.29934848	          0.00000000	         -0.10909157	         -0.10701575	          0.03305838	         -0.05459864	         -0.00017248	          0.00000000	         -0.00007815	          0.00000000	          0.07288001	          0.00000000	          0.00000000	          0.00200459	          0.00000000	
          1.80000000	         40.13588333	        649.90108571	         47.43727698	         -0.29881686	          0.00000000	         -0.10940912	         -0.10300289	         -0.37285439	         -0.08567665	         -0.00042884	          0.00000000	         -0.00018588	          0.00000000	          0.09086306	          0.00000000	          0.00000000	          0.00198193	          0.00000000	
          1.80500000	         43.61553215	        660.22269365	         48.53034497	         -0.29830120	          0.00000000	         -0.10971639	         -0.08404218	         -0.95984310	         -0.12357273	         -0.00077571	          0.00000000	         -0.00033095	          0.00000000	          0.10650528	          0.00000000	          0.00000000	          0.00170215	          0.00000000	
          1.81000000	         47.15955333	        670.03248524	         49.59281457	         -0.29779272	          0.00000000	         -0.11001265	         -0.04411048	         -1.75680578	         -0.16742712	         -0.00122095	          0.00000000	         -0.00051635	          0.00000000	          0.12127626	          0.00000000	          0.00000000	          0.00105596	          0.00000000	
          1.81500000	         50.74290383	        679.15620905	         50.61678514	         -0.29728222	          0.00000000	         -0.11029933	          0.02359828	         -2.78290974	         -0.21516430	         -0.00176468	          0.00000000	         -0.00074178	          0.00000000	          0.13662030	          0.00000000	          0.00000000	         -0.00008194	          0.00000000	
          1.82000000	         54.34097839	        687.42392601	         51.59567028	         -0.29676080	          0.00000000	         -0.11057754	          0.12627161	         -4.03978451	         -0.26306888	         -0.00239492	          0.00000000	         -0.00100183	          0.00000000	          0.15393744	          0.00000000	          0.00000000	         -0.00184624	          0.00000000	
          1.82500000	         57.93058565	        694.67763361	         52.52469786	         -0.29622148	          0.00000000	         -0.11084782	          0.27080548	         -5.50151065	         -0.30532655	         -0.00308234	          0.00000000	         -0.00128379	          0.00000000	          0.17446857	          0.00000000	          0.00000000	         -0.00436977	          0.00000000	
          1.83000000	         61.49212579	        700.77983330	         53.40002343	         -0.29565918	          0.00000000	         -0.11110920	          0.46279074	         -7.10240600	         -0.33356695	         -0.00377415	          0.00000000	         -0.00156514	          0.00000000	          0.19891708	          0.00000000	          0.00000000	         -0.00776600	          0.00000000	
          1.83500000	         65.01242511	        705.61904507	         54.21785502	         -0.29507045	          0.00000000	         -0.11135800	          0.70509358	         -8.72288363	         -0.33646629	         -0.00438749	          0.00000000	         -0.00181086	          0.00000000	          0.22749846	          0.00000000	          0.00000000	         -0.01210424	          0.00000000	
          1.84000000	         68.48578018	        709.10888723	         54.97301827	         -0.29445363	          0.00000000	         -0.11158897	          0.99597786	        -10.17404707	         -0.29949173	         -0.00480281	          0.00000000	         -0.00197069	          0.00000000	          0.26016470	          0.00000000	          0.00000000	         -0.01737640	          0.00000000	
          1.84500000	         71.91154752	        711.18481477	         55.65763167	         -0.29380973	          0.00000000	         -0.11179604	          1.32674487	        -11.18221620	         -0.20489860	         -0.00485814	          0.00000000	         -0.00197689	          0.00000000	          0.29646224	          0.00000000	          0.00000000	         -0.02345472	          0.00000000	
          1.85000000	         75.29270681	        711.79845482	         56.25968115	         -0.29314197	          0.00000000	         -0.11197328	          1.67891134	        -11.37525343	         -0.03212224	         -0.00434528	          0.00000000	         -0.00174276	          0.00000000	          0.33568864	          0.00000000	          0.00000000	         -0.03004049	          0.00000000	
          1.85500000	         78.63564776	        710.90540826	         56.76092349	         -0.29245345	          0.00000000	         -0.11211591	          2.02101568	        -10.27338360	          0.24126328	         -0.00300963	          0.00000000	         -0.00116271	          0.00000000	          0.37713981	          0.00000000	          0.00000000	         -0.03660537	          0.00000000	
          1.86000000	         81.94874178	        708.45572352	         57.13570272	         -0.29174640	          0.00000000	         -0.11222078	          2.30523825	         -7.28815348	          0.63782058	         -0.00055568	          0.00000000	         -0.00011481	          0.00000000	          0.41994419	          0.00000000	          0.00000000	         -0.04232805	          0.00000000	
          1.86500000	         85.23886600	        704.38951555	         57.35128409	         -0.29102296	          0.00000000	         -0.11228767	          2.46414857	         -1.73421222	          1.17754279	          0.00333949	          0.00000000	          0.00153342	          0.00000000	          0.46331988	          0.00000000	          0.00000000	         -0.04603164	          0.00000000	
          1.87000000	         88.50679065	        698.63330498	         57.36881738	         -0.29028561	          0.00000000	         -0.11231840	          2.40805137	          7.14036816	          1.87395057	          0.00900170	          0.00000000	          0.00391453	          0.00000000	          0.50646272	          0.00000000	          0.00000000	         -0.04612995	          0.00000000	
          1.87500000	         91.74243373	        691.09864318	         57.14493447	         -0.28953777	          0.00000000	         -0.11231370	          2.02359418	         20.09860085	          2.72880400	          0.01672106	          0.00000000	          0.00714481	          0.00000000	          0.54812394	          0.00000000	          0.00000000	         -0.04059413	          0.00000000	
